<svg width="512" height="512" viewBox="0 0 512 512" fill="none" xmlns="http://www.w3.org/2000/svg">
  <defs>
    <linearGradient id="grad1" x1="0%" y1="0%" x2="100%" y2="100%">
      <stop offset="0%" style="stop-color:#667eea;stop-opacity:1" />
      <stop offset="100%" style="stop-color:#764ba2;stop-opacity:1" />
    </linearGradient>
  </defs>
  
  <!-- Background circle -->
  <circle cx="256" cy="256" r="240" fill="url(#grad1)" stroke="#ffffff" stroke-width="8"/>
  
  <!-- Brain/Heart icon -->
  <path d="M256 120 C 200 120, 160 160, 160 220 C 160 280, 200 320, 256 360 C 312 320, 352 280, 352 220 C 352 160, 312 120, 256 120 Z" 
        fill="#ffffff" opacity="0.9"/>
  
  <!-- Brain lines -->
  <path d="M 200 200 Q 256 180 312 200" stroke="#667eea" stroke-width="3" fill="none"/>
  <path d="M 200 220 Q 256 200 312 220" stroke="#667eea" stroke-width="3" fill="none"/>
  <path d="M 200 240 Q 256 220 312 240" stroke="#667eea" stroke-width="3" fill="none"/>
  <path d="M 200 260 Q 256 240 312 260" stroke="#667eea" stroke-width="3" fill="none"/>
  
  <!-- Heart shape -->
  <path d="M 256 320 L 240 300 L 220 280 Q 200 260, 220 240 Q 240 220, 256 240 Q 272 220, 292 240 Q 312 260, 292 280 L 272 300 Z" 
        fill="#ef4444" opacity="0.8"/>
  
  <!-- App name -->
  <text x="256" y="420" text-anchor="middle" font-family="Arial, sans-serif" font-size="24" font-weight="bold" fill="#ffffff">
    유어마인드
  </text>
</svg>
